<?xml version="1.0" encoding="iso-8859-1"?>
<!-- Uploaded to: SVG Repo, www.svgrepo.com, Generator: SVG Repo Mixer Tools -->
<!DOCTYPE svg PUBLIC "-//W3C//DTD SVG 1.1//EN" "http://www.w3.org/Graphics/SVG/1.1/DTD/svg11.dtd">
<svg fill="#000000" height="100px" width="100px" version="1.1" id="Capa_1" xmlns="http://www.w3.org/2000/svg" xmlns:xlink="http://www.w3.org/1999/xlink" 
	 viewBox="0 0 376.868 376.868" xml:space="preserve">
<path d="M124.485,42.025c0-4.971,4.029-9,9-9h14.6c4.971,0,9,4.029,9,9s-4.029,9-9,9h-14.6
	C128.514,51.025,124.485,46.996,124.485,42.025z M329.245,349.928c-2.072-3.155-12.67-19.091-24.072-36.221l12.64,2.495
	c4.868,0.95,9.609-2.211,10.572-7.088c0.962-4.876-2.211-9.609-7.088-10.572l-33.858-6.682c-2.962-0.588-5.872,0.356-7.916,2.28
	c-0.521,0.491-0.976,1.034-1.356,1.617c-0.334,0.51-0.619,1.058-0.847,1.639l-0.001,0.001c-0.001,0.004-0.003,0.01-0.005,0.014
	c-0.215,0.549-0.374,1.116-0.478,1.693l-6.652,33.7c-0.962,4.877,2.211,9.61,7.087,10.573c4.878,0.964,9.61-2.211,10.573-7.087
	l2.455-12.443c10.439,15.682,20.176,30.321,23.255,34.981h-39.998c-0.21,0-0.419,0.007-0.625,0.021
	c-13.374,0.018-58.136,0.035-70.014-0.021c-0.145-0.001-0.288-0.001-0.429-0.002l17.863-26.839c0.008-0.013,0.016-0.024,0.023-0.036
	l1.686-2.545c7.943-11.99,29.042-43.841,34.758-52.323c0.289-0.428,0.701-1.038,1.168-1.712c0.263,0.38,0.54,0.785,0.832,1.214
	c2.792,4.114,8.392,5.183,12.501,2.39c4.112-2.792,5.183-8.389,2.39-12.501c-3.883-5.719-7.898-11.633-14.661-12.235
	c-3.922-0.336-7.585,1.196-10.894,4.58c-1.94,1.979-3.832,4.604-6.26,8.201c-5.759,8.546-26.887,40.439-34.84,52.446l-1.686,2.544
	c-0.001,0.001-0.001,0.002-0.002,0.003l-18.881,28.369c-4.091,6.279-8.32,12.772-4.708,19.474c3.713,6.89,12.135,6.93,21.053,6.973
	c6.149,0.029,21.071,0.039,35.912,0.039c14.359,0,28.642-0.009,34.826-0.019c0.201,0,0.4-0.007,0.599-0.021h39.688
	c8.621-0.067,16.765-0.131,20.415-6.958C337.892,363.098,333.497,356.403,329.245,349.928z M88.83,92.533c-4.971,0-9,4.029-9,9
	v183.212c0,4.971,4.029,9,9,9s9-4.029,9-9V101.533C97.83,96.563,93.8,92.533,88.83,92.533z M173.511,335.034c0,4.971-4.029,9-9,9
	H99.005c-31.844,0-57.75-25.907-57.75-57.752V91.16c0-15.428,8.04-29.775,20.896-37.996V42.025c0-9.211,6.167-22.222,35.547-31.9
	C117.519,3.596,143.695,0,171.406,0c27.709,0,53.884,3.596,73.705,10.125c29.381,9.679,35.548,22.689,35.548,31.9v11.139
	c12.856,8.222,20.896,22.569,20.896,37.996v143.294c0,4.971-4.029,9-9,9s-9-4.029-9-9V91.16c0-10.451-6.165-20.085-15.706-24.545
	c-0.974-0.455-1.839-1.07-2.571-1.807c-5.037,3.204-11.62,6.302-20.166,9.117c-19.821,6.529-45.996,10.125-73.705,10.125
	c-27.711,0-53.887-3.596-73.707-10.125c-8.547-2.815-15.128-5.913-20.166-9.117c-0.731,0.736-1.597,1.352-2.57,1.807
	c-9.542,4.46-15.707,14.094-15.707,24.545v195.122c0,21.919,17.832,39.752,39.75,39.752h65.506
	C169.482,326.034,173.511,330.063,173.511,335.034z M80.152,42.025c0,7.185,31.047,24.025,91.254,24.025
	c60.206,0,91.253-16.841,91.253-24.025S231.612,18,171.406,18C111.199,18,80.152,34.841,80.152,42.025z"/>
</svg>