<?xml version="1.0" encoding="iso-8859-1"?>
<!-- Uploaded to: SVG Repo, www.svgrepo.com, Generator: SVG Repo Mixer Tools -->
<svg fill="#000000" height="800px" width="800px" version="1.1" id="Layer_1" xmlns="http://www.w3.org/2000/svg" xmlns:xlink="http://www.w3.org/1999/xlink" 
	 viewBox="0 0 512 512" xml:space="preserve">
<g>
	<g>
		<path d="M422.957,144.696H372.87V116.87C372.87,52.428,320.442,0,256,0S139.13,52.428,139.13,116.87v27.826H89.044
			c-27.618,0-50.087,22.469-50.087,50.087v267.13c0,27.618,22.469,50.087,50.087,50.087h333.913
			c27.618,0,50.087-22.469,50.087-50.087v-267.13C473.043,167.165,450.574,144.696,422.957,144.696z M172.522,116.87
			c0-46.03,37.448-83.478,83.478-83.478s83.478,37.448,83.478,83.478v27.826H172.522V116.87z M439.652,461.913
			c0,9.206-7.49,16.696-16.696,16.696H89.044c-9.206,0-16.696-7.49-16.696-16.696v-267.13c0-9.206,7.49-16.696,16.696-16.696h50.087
			v16.696c0,9.22,7.475,16.696,16.696,16.696s16.696-7.475,16.696-16.696v-16.696h166.957v16.696c0,9.22,7.475,16.696,16.696,16.696
			c9.22,0,16.696-7.475,16.696-16.696v-16.696h50.087c9.206,0,16.696,7.49,16.696,16.696V461.913z"/>
	</g>
</g>
<g>
	<g>
		<path d="M368.847,345.086l-9.912-14.868c-5.116-7.673-15.482-9.748-23.152-4.63c-7.672,5.114-9.746,15.479-4.631,23.152
			l9.913,14.869c7.403,11.105-0.534,25.956-13.892,25.956h-9.19c2.734-6.133,1.603-13.571-3.428-18.602
			c-6.521-6.521-17.091-6.519-23.611,0l-22.383,22.382c-7.713,6.325-8.145,17.922-1.228,24.839l23.611,23.611
			c6.52,6.52,17.091,6.52,23.611,0c5.097-5.097,6.19-12.662,3.318-18.839h9.301C367.132,422.955,391.008,378.327,368.847,345.086z"
			/>
	</g>
</g>
<g>
	<g>
		<path d="M328.503,234.08c-6.963-1.864-14.062,0.971-17.976,6.547l-4.65-8.055c-20.021-34.677-70.603-32.897-88.274,2.845
			l-7.92,16.019c-4.087,8.265-0.7,18.279,7.565,22.367c8.263,4.084,18.278,0.7,22.366-7.566l7.922-16.019
			c5.922-11.982,22.757-12.493,29.423-0.948l4.597,7.962c-6.68,0.699-12.556,5.395-14.397,12.269
			c-2.386,8.907,2.898,18.061,11.805,20.448l30.644,8.211c9.406,3.502,19.555-2.031,22.058-11.375l8.643-32.255
			C342.694,245.621,337.409,236.466,328.503,234.08z"/>
	</g>
</g>
<g>
	<g>
		<path d="M231.668,402.352c-0.593-9.203-8.535-16.184-17.735-15.588l-17.833,1.15c-13.351,0.837-22.2-13.461-15.534-25.009
			l4.592-7.954c3.93,5.414,10.917,8.175,17.828,6.328c8.907-2.387,14.191-11.541,11.805-20.448l-8.193-30.578
			c-0.785-4.765-3.617-9.153-8.125-11.755c-0.016-0.009-0.032-0.016-0.049-0.025c-0.019-0.011-0.036-0.023-0.053-0.034
			c-3.834-2.213-8.39-2.813-12.669-1.668l-32.254,8.643c-8.907,2.387-14.191,11.541-11.805,20.448
			c1.865,6.964,7.87,11.691,14.658,12.294l-4.651,8.056c-19.308,33.44,4.972,75.132,43.349,75.132c2.155,0,1.678-0.004,21.084-1.256
			C225.283,419.494,232.262,411.553,231.668,402.352z"/>
	</g>
</g>
</svg>