<?xml version="1.0" encoding="utf-8"?><!-- Uploaded to: SVG Repo, www.svgrepo.com, Generator: SVG Repo Mixer Tools -->
<svg fill="#000000" width="800px" height="800px" viewBox="0 0 24 24" id="recycle-bin" data-name="Flat Color" xmlns="http://www.w3.org/2000/svg" class="icon flat-color"><path id="primary" d="M19,8.84l-.86-5.17a2,2,0,0,0-2-1.67H7.85a2,2,0,0,0-2,1.67L5,8.84a1.93,1.93,0,0,0,0,.24l.93,11.09a2,2,0,0,0,2,1.83h8.16a2,2,0,0,0,2-1.83L19,9.08A1.93,1.93,0,0,0,19,8.84Z" style="fill: rgb(0, 0, 0);"></path><path id="secondary" d="M15,3a1,1,0,0,1-1,1H10A1,1,0,0,1,9,3V2h6Zm5,6a1,1,0,0,0-1-1H5a1,1,0,0,0,0,2H19A1,1,0,0,0,20,9Z" style="fill: rgb(44, 169, 188);"></path></svg>